<svg xmlns="http://www.w3.org/2000/svg" aria-hidden="true" style="position:absolute;width:0;height:0;overflow:hidden">
  <defs>
    <symbol id="icon-search" viewBox="0 0 32 32">
      <path fill="none" stroke="#fff" stroke-linecap="round" stroke-linejoin="round" stroke-width="2.286" d="M28.579 14.882c0 7.565-6.132 13.697-13.697 13.697S1.185 22.447 1.185 14.882c0-7.565 6.132-13.697 13.697-13.697s13.697 6.132 13.697 13.697zM24.409 25.12l5.37 5.356" style="stroke:var(--color1, #fff)"/>
    </symbol>
    <symbol id="icon-play" viewBox="0 0 32 32">
      <path fill="#fff" d="M32 16c0 8.837-7.163 16-16 16S0 24.837 0 16 7.163 0 16 0s16 7.163 16 16z" style="fill:var(--color1, #fff)"/>
      <path fill="#1d1d1f" d="m20.16 16-6 4.157v-8.314l6 4.157z" style="fill:var(--color2, #1d1d1f)"/>
    </symbol>
    <symbol id="icon-arrow-l" viewBox="0 0 32 32">
      <path fill="none" stroke="#fff" stroke-linecap="round" stroke-linejoin="round" stroke-width=".8" d="M21.333 6.667 12 16l9.333 9.333" style="stroke:var(--color1, #fff)"/>
    </symbol>
    <symbol id="icon-arrow-r" viewBox="0 0 32 32">
      <path fill="none" stroke="#fff" stroke-linecap="round" stroke-linejoin="round" stroke-width=".8" d="M10.667 6.667 20 16l-9.333 9.333" style="stroke:var(--color1, #fff)"/>
    </symbol>
    <symbol id="icon-facebook" viewBox="0 0 32 32">
      <path fill="#fff" d="M16 0C7.163 0 0 7.163 0 16s7.163 16 16 16 16-7.163 16-16S24.837 0 16 0zm1.668 16.703v8.705h-3.602v-8.705h-1.799v-3h1.799v-1.801C14.066 9.455 15.082 8 17.969 8h2.403v3H18.87c-1.124 0-1.198.419-1.198 1.202l-.004 1.501h2.721l-.318 3h-2.403z" style="fill:var(--color1, #fff)"/>
    </symbol>
    <symbol id="icon-telegram" viewBox="0 0 32 32">
      <path fill="#fff" d="M16 32C7.163 32 0 24.837 0 16S7.163 0 16 0s16 7.163 16 16-7.163 16-16 16zm-2.933-8.666c.389 0 .567-.173.782-.382l1.94-1.886 3.998 2.954c.736.406 1.267.196 1.45-.683l2.625-12.368c.269-1.077-.411-1.566-1.115-1.246L7.335 15.666c-1.052.422-1.046 1.009-.192 1.27l3.955 1.234 9.156-5.777c.432-.262.829-.121.503.168l-7.419 6.695-.272 4.079z" style="fill:var(--color1, #fff)"/>
    </symbol>
    <symbol id="icon-google" viewBox="0 0 32 32">
      <path fill="#fff" d="M0 16C0 7.163 7.163 0 16 0s16 7.163 16 16-7.163 16-16 16S0 24.837 0 16zm13.072-.457v1.737h2.883c-.116.746-.871 2.186-2.883 2.186-1.736 0-3.152-1.433-3.152-3.199s1.416-3.199 3.152-3.199c.988 0 1.649.42 2.026.782l1.38-1.325c-.886-.825-2.033-1.325-3.406-1.325-2.81 0-5.084 2.266-5.084 5.067s2.273 5.067 5.084 5.067c2.934 0 4.88-2.056 4.88-4.951 0-.333-.036-.586-.08-.84h-4.8zm9.441 0h1.452v1.448h-1.452v1.448h-1.452v-1.448h-1.452v-1.448h1.452v-1.448h1.452v1.448z" style="fill:var(--color1, #fff)"/>
    </symbol>
    <symbol id="icon-arrow" viewBox="0 0 32 32">
      <path fill="none" stroke="#fff" stroke-linecap="round" stroke-linejoin="round" stroke-width="2" d="M10.667 6.667 20 16l-9.333 9.333" style="stroke:var(--color1, #fff)"/>
    </symbol>
  </defs>
</svg>
